<svg width="760" height="260" viewBox="0 0 760 260" fill="none" xmlns="http://www.w3.org/2000/svg">
  <rect width="760" height="260" rx="28" fill="white"/>
  <g filter="url(#shadow)">
    <path d="M202 60C209 39 228 25 251 25H514L481 67H272C257 67 246 75 241 89L236 104H376L344 145H218L192 224H134L171 113L202 60Z" fill="url(#blue)"/>
    <path d="M420 96H522L490 137H424C407 137 395 145 391 159C386 174 395 184 413 184H463C506 184 526 209 513 246H455C459 232 451 225 435 225H386C342 225 321 199 335 159C348 121 379 96 420 96Z" fill="url(#cyan)"/>
    <path d="M196 137L172 160L195 184L209 168L201 160L210 152L196 137Z" fill="#06124B"/>
    <path d="M240 137L264 160L241 184L227 168L235 160L226 152L240 137Z" fill="#06124B"/>
    <path d="M223 132L211 190" stroke="#06124B" stroke-width="10" stroke-linecap="round"/>
    <path d="M158 191C133 214 151 241 191 240H332C382 240 431 224 472 193" stroke="url(#cyan)" stroke-width="8" stroke-linecap="round"/>
    <path d="M535 79C562 94 579 121 579 153C579 180 568 204 550 221" stroke="url(#cyan)" stroke-width="12" stroke-linecap="round"/>
    <circle cx="529" cy="70" r="13" fill="#14BFE3"/>
  </g>
  <text x="380" y="232" text-anchor="middle" font-family="Arial, Helvetica, sans-serif" font-size="42" font-weight="800" letter-spacing="18" fill="#06124B">FREELANCE</text>
  <text x="380" y="254" text-anchor="middle" font-family="Arial, Helvetica, sans-serif" font-size="24" font-weight="800" letter-spacing="14" fill="#0B7CEB">SOFTWARE</text>
  <defs>
    <linearGradient id="blue" x1="134" y1="25" x2="514" y2="224" gradientUnits="userSpaceOnUse">
      <stop stop-color="#06124B"/>
      <stop offset=".58" stop-color="#005ED8"/>
      <stop offset="1" stop-color="#17C9EE"/>
    </linearGradient>
    <linearGradient id="cyan" x1="321" y1="70" x2="590" y2="246" gradientUnits="userSpaceOnUse">
      <stop stop-color="#06124B"/>
      <stop offset=".5" stop-color="#0073EA"/>
      <stop offset="1" stop-color="#20D4E8"/>
    </linearGradient>
    <filter id="shadow" x="108" y="10" width="500" height="250" filterUnits="userSpaceOnUse" color-interpolation-filters="sRGB">
      <feDropShadow dx="0" dy="10" stdDeviation="10" flood-color="#002D7A" flood-opacity=".18"/>
    </filter>
  </defs>
</svg>
